<svg id="mobepos" xmlns="http://www.w3.org/2000/svg" viewBox="0 0 24 41"><path fill="currentColor" d="M14.5 36.5c0-.7-.3-1.3-.8-1.8-.4-.4-1-.7-1.7-.7s-1.3.3-1.8.7c-.4.5-.7 1.1-.7 1.8s.3 1.3.7 1.7c.5.5 1.1.8 1.8.8s1.3-.3 1.7-.8c.5-.4.8-1 .8-1.7Zm6.4-5V9.7a1 1 0 0 0-.3-.7 1 1 0 0 0-.7-.3H4a1 1 0 0 0-.7.3 1 1 0 0 0-.2.7v21.8c0 .3 0 .5.2.7.2.2.5.3.7.3h16c.2 0 .4 0 .6-.3.2-.2.3-.4.3-.7ZM15 5.2c0-.3-.1-.5-.4-.5h-5c-.3 0-.5.2-.5.5 0 .4.2.5.5.5h5c.3 0 .5-.1.5-.5Zm9-.5v31.8c0 1-.4 2-1.2 2.8-.8.8-1.7 1.2-2.8 1.2H4c-1 0-2-.4-2.7-1.2A3.8 3.8 0 0 1 0 36.5V4.7A4 4 0 0 1 4 .8h16c1 0 2 .3 2.7 1.1a4 4 0 0 1 1.2 2.8Z"></path></svg>