<svg id="webepos" xmlns="http://www.w3.org/2000/svg" fill="none" viewBox="0 0 35 40"><path fill="currentColor" d="M34.1 10.9h-2v20.3h2c.5 0 .8-.4.8-.8V11.7c0-.5-.3-.8-.8-.8Zm-3.5 0H24v20.3h6.6V10.9ZM20.8.8H2.2C1 .8.1 1.8.1 2.9v34.4c0 1.2 1 2.2 2.1 2.2h18.6c1.2 0 2.2-1 2.2-2.2V3c0-1.2-1-2.1-2.2-2.1ZM7 34.8c0 .2-.2.4-.4.4H3.3a.4.4 0 0 1-.4-.5v-1.4c0-.3.2-.4.4-.4h3.3c.2 0 .4.1.4.4v1.4Zm0-4.4c0 .3-.2.5-.4.5H3.3a.4.4 0 0 1-.4-.5V29c0-.2.2-.4.4-.4h3.3c.2 0 .4.2.4.4v1.4Zm0-4.1c0 .2-.2.4-.4.4H3.3a.4.4 0 0 1-.4-.4v-1.4c0-.3.2-.5.4-.5h3.3c.2 0 .4.2.4.5v1.4ZM7 22c0 .2-.2.4-.4.4H3.3A.4.4 0 0 1 3 22v-1.4c0-.3.2-.5.4-.5h3.3c.2 0 .4.2.4.5V22Zm6.5 12.7c0 .3-.2.5-.4.5H9.8a.4.4 0 0 1-.4-.5v-1.4c0-.3.2-.4.4-.4h3.3c.2 0 .4.1.4.4v1.4Zm0-4.3c0 .3-.2.5-.4.5H9.8a.4.4 0 0 1-.4-.5V29c0-.2.2-.4.4-.4h3.3c.2 0 .4.2.4.4v1.4Zm0-4.1c0 .2-.2.4-.4.4H9.8a.4.4 0 0 1-.4-.4v-1.4c0-.3.2-.5.4-.5h3.3c.2 0 .4.2.4.5v1.4Zm0-4.3c0 .2-.2.4-.4.4H9.8a.4.4 0 0 1-.4-.4v-1.4c0-.3.2-.5.4-.5h3.3c.2 0 .4.2.4.5V22Zm6.6 12.7c0 .3-.2.5-.4.5h-3.3a.4.4 0 0 1-.4-.5v-1.4c0-.3.2-.4.4-.4h3.3c.2 0 .4.1.4.4v1.4Zm0-4.3c0 .3-.2.5-.4.5h-3.3a.4.4 0 0 1-.4-.5V29c0-.2.2-.4.4-.4h3.3c.2 0 .4.2.4.4v1.4Zm0-4.1c0 .2-.2.4-.4.4h-3.3a.4.4 0 0 1-.4-.4v-1.4c0-.3.2-.5.4-.5h3.3c.2 0 .4.2.4.5v1.4Zm0-4.3c0 .2-.2.4-.4.4h-3.3a.4.4 0 0 1-.4-.4v-1.4c0-.3.2-.5.4-.5h3.3c.2 0 .4.2.4.5V22Zm0-6H3V4.6h17V16Z"></path></svg>